<svg width="24" height="24" xmlns="http://www.w3.org/2000/svg" fill-rule="evenodd" clip-rule="evenodd">
    <path d="M 24 0 v 24 h -24 v -24 h 24 z m -12 4 c -4.4 0 -8 3.6 -8 8 c 0 4.4 3.6 8 8 8 s 8 -3.6 8 -8 c 0 -4.4 -3.6 -8 -8 -8 z m 3.7 11.5 c -0.1 0.2 -0.5 0.3 -0.7 0.2 c -1.9 -1.1 -4.2 -1.4 -7 -0.8 c -0.3 0.1 -0.5 -0.1 -0.6 -0.4 c -0.1 -0.3 0.1 -0.5 0.4 -0.6 c 3 -0.7 5.7 -0.4 7.8 0.9 c 0.2 0.1 0.3 0.5 0.2 0.7 z m 1 -2.2 c -0.2 0.3 -0.6 0.4 -0.9 0.2 c -2.2 -1.3 -5.4 -1.7 -8 -0.9 c -0.3 0.1 -0.7 -0.1 -0.8 -0.4 c -0.1 -0.3 0.1 -0.7 0.4 -0.8 c 2.9 -0.9 6.5 -0.5 9 1.1 c 0.3 0.2 0.4 0.6 0.2 0.9 z m 0.1 -2.3 c -2.6 -1.5 -6.8 -1.7 -9.3 -0.9 c -0.4 0.1 -0.8 -0.1 -0.9 -0.5 c -0.1 -0.4 0.1 -0.8 0.5 -0.9 c 2.8 -0.9 7.5 -0.7 10.5 1.1 c 0.4 0.2 0.5 0.7 0.3 1 c -0.2 0.4 -0.7 0.5 -1 0.3 z" />
</svg>
