<svg id="Capa_1" enable-background="new 0 0 511.911 511.911" height="512" viewBox="0 0 511.911 511.911" width="512" xmlns="http://www.w3.org/2000/svg"><g><path d="m172.268 462.697 14.527 3.77 95.702-425.253-14.527-3.77z" fill="#d9e7ec"/><g><g id="XMLID_247_"><g><path d="m343.346 72.999c101.42 48.091 144.51 168.979 96.25 270.022-48.27 101.043-169.61 143.973-271.03 95.892-101.42-48.091-144.51-168.979-96.25-270.022 48.27-101.043 169.61-143.973 271.03-95.892z" fill="#a6e7f0"/></g></g><path d="m220.614 358.63c-94.706-44.907-138.542-153.306-104.634-249.735-17.653 16.671-32.585 36.805-43.664 59.996-48.26 101.043-5.17 221.932 96.25 270.022 101.42 48.081 222.76 5.151 271.03-95.892 3.195-6.688 5.995-13.481 8.398-20.316-59.26 55.963-149.237 72.971-227.38 35.925z" fill="#6bd9e7"/><path d="m313.569.9c-9.502-2.132-19.269-.447-27.499 4.741-8.231 5.188-13.942 13.259-16.081 22.726l-2.019 8.938 14.528 3.756 2.126-9.413c1.258-5.572 4.62-10.323 9.465-13.377 4.847-3.055 10.599-4.044 16.188-2.791 11.546 2.589 18.826 14.054 16.228 25.558l-99.216 439.227c-1.258 5.572-4.62 10.323-9.465 13.377-4.847 3.054-10.598 4.044-16.188 2.791-11.546-2.589-18.826-14.054-16.228-25.558l1.387-6.142-14.527-3.756-1.495 6.617c-4.414 19.543 7.954 39.02 27.569 43.418 2.685.602 5.39.899 8.076.899 6.821 0 13.518-1.919 19.423-5.64 8.231-5.188 13.942-13.259 16.081-22.726l99.216-439.227c4.414-19.543-7.954-39.02-27.569-43.418z" fill="#d9e7ec"/><g><path d="m195.464 428.092c-.546 0-1.099-.059-1.653-.184-4.041-.906-6.58-4.904-5.671-8.93l51.177-226.56c.91-4.026 4.927-6.554 8.964-5.649 4.041.906 6.58 4.904 5.671 8.93l-51.177 226.56c-.785 3.473-3.881 5.833-7.311 5.833z" fill="#6bd9e7"/></g><path d="m193.811 427.908c.555.125 1.107.184 1.653.184 3.43 0 6.525-2.359 7.311-5.833l14.717-65.154c-4.694-2.323-9.265-4.797-13.698-7.426l-15.654 69.299c-.909 4.026 1.63 8.024 5.671 8.93z" fill="#2ed1e2"/><g><path d="m255.962 160.267c-.545 0-1.1-.059-1.653-.184-4.041-.906-6.58-4.905-5.671-8.931l7.08-31.341c.91-4.025 4.926-6.559 8.964-5.649 4.041.906 6.58 4.905 5.671 8.931l-7.08 31.341c-.785 3.473-3.881 5.833-7.311 5.833z" fill="#6bd9e7"/></g><g id="XMLID_248_"><g fill="#6bd9e7"><path d="m422.726 139.939-65.96 292c-20.18 11.457-42.2 19.408-65.05 23.482l82.319-364.473c19.28 13.649 35.631 30.311 48.691 48.991z"/><path d="m220.196 56.483-82.32 364.467c-19.28-13.649-35.63-30.297-48.69-48.977l65.962-292.008c20.179-11.457 42.198-19.408 65.048-23.482z"/></g></g></g><g fill="#2ed1e2"><path d="m309.131 378.32-17.415 77.102c22.85-4.075 44.87-12.025 65.05-23.482l14.385-63.679c-19.913 6.485-40.838 9.925-62.02 10.059z"/><path d="m161.517 316.279c-19.487-20.161-34.359-43.967-44.005-69.704l-28.326 125.398c13.06 18.68 29.41 35.328 48.69 48.977z"/></g></g></svg>